<svg width="100%" height="461" viewBox="0 0 800 461" preserveAspectRatio="xMinYMin meet" fill="none" xmlns="http://www.w3.org/2000/svg">
<g filter="url(#filter0_d_103_49)">
<path fill-rule="evenodd" clip-rule="evenodd" d="M620 218.5C620 329.233 530.233 419 419.5 419C308.767 419 219 329.233 219 218.5C219 209.554 219.586 200.744 220.722 192.108C223.815 175.282 228.392 158.306 234.55 142.026C235.863 138.552 237.249 135.11 238.708 131.707C258.409 90.7432 291.623 57.5057 332.57 37.774C332.879 37.6815 333.189 37.5902 333.5 37.5V37.3287C354.695 27.2495 377.939 20.7803 402.437 18.7158C320.557 35.6104 259 108.116 259 195C259 207.561 260.287 219.822 262.735 231.658C266.902 258.589 278.378 283.104 295.073 303.115C327.918 346.77 380.162 375 439 375C536.772 375 616.338 297.047 618.935 199.901C619.113 201.113 619.285 202.324 619.45 203.534C619.814 208.475 620 213.466 620 218.5ZM373.534 351.937C393.684 360.352 415.799 365 439 365C532.888 365 609 288.888 609 195C609 145.621 587.947 101.159 554.328 70.1007C549.893 66.0697 545.278 62.2348 540.495 58.6095C512.169 37.4969 477.044 25 439 25C364.217 25 300.712 73.2876 277.963 140.384C302.613 93.7664 351.597 62 408 62C489.186 62 555 127.814 555 209C555 290.186 489.186 356 408 356C396.13 356 384.589 354.593 373.534 351.937ZM302.917 296.906C328.048 326.916 365.795 346 408 346C483.663 346 545 284.663 545 209C545 192.152 541.959 176.014 536.395 161.105C536.795 164.682 537 168.317 537 172C537 225.572 493.572 269 440 269C426.478 269 413.602 266.233 401.907 261.234C395.325 258.854 389.248 255.417 383.882 251.128C359.141 233.55 343 204.66 343 172C343 119.473 384.752 76.697 436.879 75.0493C427.569 73.0516 417.907 72 408 72C332.337 72 271 133.337 271 209C271 216.095 271.539 223.064 272.579 229.868C277.738 254.615 288.277 277.387 302.917 296.906ZM405.57 251.922C400.026 249.53 394.779 246.578 389.903 243.137C377.763 233.33 370 218.321 370 201.5C370 171.953 393.953 148 423.5 148C453.047 148 477 171.953 477 201.5C477 231.047 453.047 255 423.5 255C417.211 255 411.175 253.915 405.57 251.922ZM452.222 258.148C472.86 247.664 487 226.233 487 201.5C487 166.43 458.57 138 423.5 138C388.43 138 360 166.43 360 201.5C360 203.265 360.072 205.012 360.213 206.74C355.573 196.099 353 184.35 353 172C353 123.951 391.951 85 440 85C488.049 85 527 123.951 527 172C527 215.901 494.484 252.207 452.222 258.148ZM419.5 8C467.202 8 511.198 23.8671 546.498 50.6114C548.703 52.2551 550.868 53.9481 552.993 55.6888C571.388 68.1733 586.093 85.8995 597.474 106.041C618.074 138.574 630 177.144 630 218.5C630 225.654 629.643 232.725 628.946 239.696C629.949 288.946 637.517 320.75 648.971 340.467C649.474 341.334 649.985 342.178 650.505 343C662.62 362.179 679.177 369.61 698.35 369.61H770H780V379H770H698.35C677.236 379 658.061 370.414 644.248 346.635C643.759 345.792 643.276 344.931 642.799 344.052C633.477 326.846 626.726 302.642 623.706 269.796C600.803 361.26 518.063 429 419.5 429C319.663 429 236.059 359.496 214.436 266.236C210.597 300.882 201.915 326.217 189.928 344.049C189.582 344.564 189.233 345.073 188.882 345.575C171.697 370.133 147.843 379 121.576 379H30H20V369.302H30H121.576C145.87 369.302 166.787 361.341 181.929 340.71C182.291 340.216 182.651 339.715 183.007 339.206C198.328 317.311 208.06 280.986 208.06 223.35C208.06 223.232 208.06 223.113 208.06 222.995L208.061 222.681C208.096 213.373 208.859 203.385 210.398 193.025C210.632 191.448 210.884 189.863 211.155 188.27C215.022 161.381 223.971 136.134 236.997 113.534C248.91 91.9277 264.74 72.0234 284.926 56.6289C321.41 26.2637 368.322 8 419.5 8Z" fill="white"/>
</g>
<defs>
<filter id="filter0_d_103_49" x="0" y="0" width="800" height="461" filterUnits="userSpaceOnUse" color-interpolation-filters="sRGB">
<feFlood flood-opacity="0" result="BackgroundImageFix"/>
<feColorMatrix in="SourceAlpha" type="matrix" values="0 0 0 0 0 0 0 0 0 0 0 0 0 0 0 0 0 0 127 0" result="hardAlpha"/>
<feOffset dy="12"/>
<feGaussianBlur stdDeviation="10"/>
<feComposite in2="hardAlpha" operator="out"/>
<feColorMatrix type="matrix" values="0 0 0 0 0.613455 0 0 0 0 0.695292 0 0 0 0 0.770833 0 0 0 0.3 0"/>
<feBlend mode="normal" in2="BackgroundImageFix" result="effect1_dropShadow_103_49"/>
<feBlend mode="normal" in="SourceGraphic" in2="effect1_dropShadow_103_49" result="shape"/>
</filter>
</defs>
</svg>
