<svg width="100%" height="100%" viewBox="0 0 840 461" preserveAspectRatio="xMinYMin meet" fill="none" xmlns="http://www.w3.org/2000/svg">
<g filter="url(#filter0_d_102_2)">
<path fill-rule="evenodd" clip-rule="evenodd" d="M621 218.5C621 329.233 531.233 419 420.5 419C309.767 419 220 329.233 220 218.5C220 205.432 221.25 192.657 223.637 180.286C226.425 167.901 230.027 155.541 234.482 143.542C262.142 74.9632 326.627 25.1889 403.437 18.7158C321.557 35.6104 260 108.116 260 195C260 207.561 261.287 219.822 263.735 231.658C267.902 258.589 279.378 283.104 296.073 303.115C328.918 346.77 381.162 375 440 375C538.379 375 618.325 296.076 619.974 198.09C620.652 204.801 621 211.61 621 218.5ZM374.534 351.937C394.684 360.352 416.799 365 440 365C533.888 365 610 288.888 610 195C610 145.622 588.948 101.16 555.329 70.1018C550.894 66.0701 546.278 62.2346 541.494 58.6088C513.169 37.4966 478.044 25 440 25C365.217 25 301.712 73.2876 278.963 140.384C303.613 93.7664 352.597 62 409 62C490.186 62 556 127.814 556 209C556 290.186 490.186 356 409 356C397.13 356 385.589 354.593 374.534 351.937ZM303.917 296.906C329.048 326.916 366.795 346 409 346C484.663 346 546 284.663 546 209C546 192.152 542.959 176.014 537.395 161.105C537.795 164.682 538 168.317 538 172C538 225.572 494.572 269 441 269C427.478 269 414.602 266.233 402.907 261.234C396.325 258.854 390.248 255.417 384.882 251.128C360.141 233.55 344 204.66 344 172C344 119.473 385.752 76.697 437.879 75.0493C428.569 73.0516 418.907 72 409 72C333.337 72 272 133.337 272 209C272 216.095 272.539 223.064 273.579 229.868C278.738 254.615 289.277 277.387 303.917 296.906ZM406.57 251.922C401.026 249.53 395.779 246.578 390.903 243.137C378.763 233.33 371 218.321 371 201.5C371 171.953 394.953 148 424.5 148C454.047 148 478 171.953 478 201.5C478 231.047 454.047 255 424.5 255C418.211 255 412.175 253.915 406.57 251.922ZM453.222 258.148C473.86 247.664 488 226.233 488 201.5C488 166.43 459.57 138 424.5 138C389.43 138 361 166.43 361 201.5C361 203.265 361.072 205.012 361.213 206.74C356.573 196.099 354 184.35 354 172C354 123.951 392.951 85 441 85C489.049 85 528 123.951 528 172C528 215.901 495.484 252.207 453.222 258.148ZM420.5 8C468.202 8 512.198 23.867 547.498 50.611C550.313 52.7105 553.065 54.8904 555.75 57.1474C575.613 72.469 591.223 92.1694 603.003 113.534C616.029 136.134 624.978 161.381 628.845 188.269C629.116 189.862 629.368 191.448 629.602 193.025C631.141 203.385 631.904 213.373 631.939 222.681C631.94 222.904 631.94 223.127 631.94 223.35C631.94 280.986 641.672 317.311 656.993 339.206C657.349 339.715 657.709 340.216 658.071 340.71C673.213 361.341 694.13 369.302 718.424 369.302H810H820V379H810H718.424C692.157 379 668.302 370.133 651.118 345.575C650.767 345.073 650.418 344.564 650.072 344.049C638.085 326.217 629.403 300.882 625.564 266.236C603.941 359.496 520.337 429 420.5 429C320.133 429 236.173 358.757 215.097 264.749C211.344 300.159 202.586 325.963 190.428 344.049C190.082 344.564 189.733 345.073 189.382 345.575C172.197 370.133 148.343 379 122.076 379H30.5H20.5V369.302H30.5H122.076C146.37 369.302 167.287 361.341 182.429 340.71C182.791 340.216 183.151 339.715 183.507 339.206C198.828 317.311 208.56 280.986 208.56 223.35C208.56 223.127 208.56 222.904 208.561 222.681C208.596 213.373 209.359 203.385 210.898 193.025C212.601 181.556 215.256 169.63 218.925 157.663C220.266 153.215 221.749 148.829 223.371 144.511C224.127 142.469 224.914 140.43 225.731 138.397C238.913 105.595 260.083 74.1755 290.597 52.8523C326.374 24.7558 371.48 8 420.5 8Z" fill="white"/>
</g>
<defs>
<filter id="filter0_d_102_2" x="0.5" y="0" width="839.5" height="461" filterUnits="userSpaceOnUse" color-interpolation-filters="sRGB">
<feFlood flood-opacity="0" result="BackgroundImageFix"/>
<feColorMatrix in="SourceAlpha" type="matrix" values="0 0 0 0 0 0 0 0 0 0 0 0 0 0 0 0 0 0 127 0" result="hardAlpha"/>
<feOffset dy="12"/>
<feGaussianBlur stdDeviation="10"/>
<feComposite in2="hardAlpha" operator="out"/>
<feColorMatrix type="matrix" values="0 0 0 0 0.613455 0 0 0 0 0.695292 0 0 0 0 0.770833 0 0 0 0.3 0"/>
<feBlend mode="normal" in2="BackgroundImageFix" result="effect1_dropShadow_102_2"/>
<feBlend mode="normal" in="SourceGraphic" in2="effect1_dropShadow_102_2" result="shape"/>
</filter>
</defs>
</svg>
